<?xml version="1.0" encoding="UTF-8"?>
<svg version="1.1" xmlns="http://www.w3.org/2000/svg" width="200" height="200">
<path d="M0 0 C18.06654401 17.52462623 28.36921169 42.03219736 29.0324707 67.14990234 C29.13498828 93.61149871 19.23478668 118.68598593 0.84887695 137.67724609 C-13.32849655 151.44677734 -13.32849655 151.44677734 -20.00268555 151.44677734 C-20.10291016 150.6655249 -20.20313477 149.88427246 -20.30639648 149.0793457 C-20.77296662 145.51209432 -21.26259982 141.94837096 -21.75268555 138.38427734 C-21.90995117 137.15515625 -22.0672168 135.92603516 -22.22924805 134.65966797 C-23.61311473 124.78631144 -26.33598589 118.81523486 -33.00268555 111.44677734 C-36.31130163 109.7924693 -39.99678836 110.33365458 -43.6315918 110.36474609 C-44.51625626 110.36895065 -45.40092072 110.37315521 -46.31239319 110.37748718 C-49.20924401 110.39408638 -52.10591623 110.41954882 -55.00268555 110.44677734 C-56.45417999 110.45865082 -56.45417999 110.45865082 -57.93499756 110.47076416 C-63.92064806 110.52229502 -69.90520463 110.60334758 -75.89013672 110.70922852 C-77.95027093 110.74303365 -80.01051028 110.77087955 -82.07080078 110.79321289 C-85.09926988 110.82665436 -88.12690844 110.87881663 -91.1550293 110.93505859 C-92.53149879 110.94464348 -92.53149879 110.94464348 -93.93577576 110.954422 C-100.49876147 111.09132428 -100.49876147 111.09132428 -106.00268555 114.44677734 C-107.10446574 116.87925307 -107.10446574 116.87925307 -107.5144043 119.71630859 C-107.71380615 120.76431641 -107.91320801 121.81232422 -108.11865234 122.89208984 C-108.40156128 124.55884766 -108.40156128 124.55884766 -108.69018555 126.25927734 C-108.89877197 127.38462891 -109.1073584 128.50998047 -109.32226562 129.66943359 C-110.62290637 136.80625646 -111.74922628 143.95391543 -112.5456543 151.16552734 C-112.69647461 151.91833984 -112.84729492 152.67115234 -113.00268555 153.44677734 C-113.66268555 153.77677734 -114.32268555 154.10677734 -115.00268555 154.44677734 C-135.93311957 144.39416746 -151.97267076 122.5821575 -160.00268555 101.44677734 C-162.5513564 93.36305396 -164.66697995 84.93733133 -165.00268555 76.44677734 C-165.05424805 75.36525391 -165.10581055 74.28373047 -165.15893555 73.16943359 C-165.8653694 45.11812271 -155.39026789 19.66723454 -136.25268555 -0.74072266 C-97.18970444 -37.77648318 -38.62815415 -36.21215086 0 0 Z M-86.00268555 15.44677734 C-87.98831278 18.85469375 -90.00268555 22.43177048 -90.00268555 26.44677734 C-74.91209771 27.26837602 -60.08164733 27.54189747 -45.00268555 26.44677734 C-45.89853734 18.94290984 -48.16499621 14.31970551 -54.22924805 9.54833984 C-65.71939449 2.41128853 -77.40934959 5.50360322 -86.00268555 15.44677734 Z M-110.94018555 80.57177734 C-111.62081055 81.52052734 -112.30143555 82.46927734 -113.00268555 83.44677734 C-113.93081055 84.12740234 -114.85893555 84.80802734 -115.81518555 85.50927734 C-116.53706055 86.14865234 -117.25893555 86.78802734 -118.00268555 87.44677734 C-118.00268555 88.76677734 -118.00268555 90.08677734 -118.00268555 91.44677734 C-109.58626791 91.53163852 -109.58626791 91.53163852 -102.25268555 88.00927734 C-99.78275182 85.7646503 -99.78275182 85.7646503 -100.00268555 83.44677734 C-98.68268555 82.78677734 -97.36268555 82.12677734 -96.00268555 81.44677734 C-96.00268555 81.11677734 -96.00268555 80.78677734 -96.00268555 80.44677734 C-103.80732538 78.10422492 -103.80732538 78.10422492 -110.94018555 80.57177734 Z M-31.3815918 78.92724609 C-33.60205873 79.38940901 -35.80201565 79.89905506 -38.00268555 80.44677734 C-36.63596644 82.34672398 -35.24469677 84.21733906 -33.8112793 86.06787109 C-32.00268555 88.44677734 -32.00268555 88.44677734 -30.3503418 90.98193359 C-28.37796903 93.70527543 -26.80517799 95.56565228 -24.00268555 97.44677734 C-18.881288 98.20068866 -14.13360432 97.98792893 -9.00268555 97.44677734 C-9.2595705 95.01899057 -9.2595705 95.01899057 -10.00268555 92.44677734 C-11.68208134 91.26132149 -13.36866825 90.08349547 -15.10424805 88.98193359 C-17.39909087 87.12622736 -18.56704896 85.16684157 -20.06518555 82.63427734 C-22.11989127 79.11956286 -22.11989127 79.11956286 -25.81518555 77.75927734 C-27.66844186 78.15899929 -29.52324233 78.55191443 -31.3815918 78.92724609 Z M-90.00268555 81.44677734 C-90.00268555 86.72677734 -90.00268555 92.00677734 -90.00268555 97.44677734 C-83.02855037 97.44677734 -81.51148257 97.37653334 -76.5378418 93.38037109 C-74.17460157 90.40377081 -74.3823457 87.87402635 -74.72143555 84.20458984 C-74.81424805 83.62451172 -74.90706055 83.04443359 -75.00268555 82.44677734 C-79.26427937 80.31598043 -85.41032256 81.40175418 -90.00268555 81.44677734 Z M-49.44018555 80.88427734 C-50.40827148 80.96548828 -51.37635742 81.04669922 -52.3737793 81.13037109 C-55.10728912 81.37020089 -55.10728912 81.37020089 -58.00268555 82.44677734 C-58.55440799 86.38765193 -58.98120629 89.92360826 -56.76049805 93.38037109 C-53.38203914 96.62649406 -50.76929863 97.79944769 -46.06518555 97.82177734 C-44.72456055 97.69802734 -43.38393555 97.57427734 -42.00268555 97.44677734 C-42.00268555 91.83677734 -42.00268555 86.22677734 -42.00268555 80.44677734 C-44.50091402 80.44677734 -46.95099854 80.66940728 -49.44018555 80.88427734 Z M-114.00268555 100.44677734 C-114.00268555 102.42677734 -114.00268555 104.40677734 -114.00268555 106.44677734 C-113.67268555 106.44677734 -113.34268555 106.44677734 -113.00268555 106.44677734 C-112.67268555 104.46677734 -112.34268555 102.48677734 -112.00268555 100.44677734 C-112.66268555 100.44677734 -113.32268555 100.44677734 -114.00268555 100.44677734 Z M-105.00268555 100.44677734 C-105.00268555 102.42677734 -105.00268555 104.40677734 -105.00268555 106.44677734 C-104.67268555 106.44677734 -104.34268555 106.44677734 -104.00268555 106.44677734 C-104.00268555 104.46677734 -104.00268555 102.48677734 -104.00268555 100.44677734 C-104.33268555 100.44677734 -104.66268555 100.44677734 -105.00268555 100.44677734 Z M-76.00268555 100.44677734 C-76.00268555 102.42677734 -76.00268555 104.40677734 -76.00268555 106.44677734 C-75.34268555 105.45677734 -74.68268555 104.46677734 -74.00268555 103.44677734 C-74.33268555 102.78677734 -74.66268555 102.12677734 -75.00268555 101.44677734 C-74.01268555 101.11677734 -73.02268555 100.78677734 -72.00268555 100.44677734 C-73.32268555 100.44677734 -74.64268555 100.44677734 -76.00268555 100.44677734 Z M-68.00268555 100.44677734 C-68.00268555 102.42677734 -68.00268555 104.40677734 -68.00268555 106.44677734 C-67.67268555 106.44677734 -67.34268555 106.44677734 -67.00268555 106.44677734 C-67.00268555 104.79677734 -67.00268555 103.14677734 -67.00268555 101.44677734 C-66.34268555 101.11677734 -65.68268555 100.78677734 -65.00268555 100.44677734 C-65.99268555 100.44677734 -66.98268555 100.44677734 -68.00268555 100.44677734 Z M-62.00268555 100.44677734 C-62.00268555 102.42677734 -62.00268555 104.40677734 -62.00268555 106.44677734 C-61.67268555 106.44677734 -61.34268555 106.44677734 -61.00268555 106.44677734 C-61.00268555 104.46677734 -61.00268555 102.48677734 -61.00268555 100.44677734 C-61.33268555 100.44677734 -61.66268555 100.44677734 -62.00268555 100.44677734 Z M-59.00268555 100.44677734 C-59.00268555 102.09677734 -59.00268555 103.74677734 -59.00268555 105.44677734 C-58.01268555 104.78677734 -57.02268555 104.12677734 -56.00268555 103.44677734 C-56.66268555 103.44677734 -57.32268555 103.44677734 -58.00268555 103.44677734 C-57.67268555 102.45677734 -57.34268555 101.46677734 -57.00268555 100.44677734 C-57.66268555 100.44677734 -58.32268555 100.44677734 -59.00268555 100.44677734 Z M-56.00268555 100.44677734 C-55.01268555 100.77677734 -54.02268555 101.10677734 -53.00268555 101.44677734 C-52.67268555 102.10677734 -52.34268555 102.76677734 -52.00268555 103.44677734 C-52.00268555 102.45677734 -52.00268555 101.46677734 -52.00268555 100.44677734 C-53.32268555 100.44677734 -54.64268555 100.44677734 -56.00268555 100.44677734 Z M-38.00268555 100.44677734 C-37.00268555 104.44677734 -37.00268555 104.44677734 -37.00268555 104.44677734 Z M-29.00268555 100.44677734 C-29.00268555 102.75677734 -29.00268555 105.06677734 -29.00268555 107.44677734 C-27.68268555 107.11677734 -26.36268555 106.78677734 -25.00268555 106.44677734 C-25.99268555 106.44677734 -26.98268555 106.44677734 -28.00268555 106.44677734 C-28.00268555 104.46677734 -28.00268555 102.48677734 -28.00268555 100.44677734 C-28.33268555 100.44677734 -28.66268555 100.44677734 -29.00268555 100.44677734 Z M-99.00268555 101.44677734 C-98.00268555 103.44677734 -98.00268555 103.44677734 -98.00268555 103.44677734 Z M-87.00268555 102.44677734 C-86.00268555 104.44677734 -86.00268555 104.44677734 -86.00268555 104.44677734 Z M-55.00268555 103.44677734 C-55.00268555 104.10677734 -55.00268555 104.76677734 -55.00268555 105.44677734 C-54.34268555 105.44677734 -53.68268555 105.44677734 -53.00268555 105.44677734 C-53.00268555 104.78677734 -53.00268555 104.12677734 -53.00268555 103.44677734 C-53.66268555 103.44677734 -54.32268555 103.44677734 -55.00268555 103.44677734 Z " fill="#060606" transform="translate(168.002685546875,30.55322265625)"/>
<path d="M0 0 C3.22189775 3.09944801 6.34376702 6.28707443 9.42236328 9.52929688 C8.10236328 10.84929688 6.78236328 12.16929688 5.42236328 13.52929688 C5.42236328 12.86929688 5.42236328 12.20929687 5.42236328 11.52929688 C4.76236328 11.52929688 4.10236328 11.52929688 3.42236328 11.52929688 C3.16712891 12.10421875 2.91189453 12.67914063 2.64892578 13.27148438 C0.87398607 16.53873009 -1.60454947 19.00738618 -4.11669922 21.72460938 C-5.78736946 23.4013946 -5.78736946 23.4013946 -5.57763672 25.52929688 C-6.18349609 25.57828125 -6.78935547 25.62726562 -7.41357422 25.67773438 C-12.61160953 26.14155906 -17.61080558 26.89861737 -22.71044922 27.99023438 C-27.62330299 28.91390443 -32.58934215 29.46477775 -37.55029297 30.06445312 C-40.44965133 30.20411208 -40.44965133 30.20411208 -41.57763672 31.52929688 C-46.11219466 31.79252243 -50.66111184 31.7235117 -55.20263672 31.71679688 C-56.21871002 31.71638901 -56.21871002 31.71638901 -57.25531006 31.7159729 C-78.67298032 31.6764639 -99.48757895 29.0443065 -120.57763672 25.52929688 C-120.57763672 42.68929687 -120.57763672 59.84929687 -120.57763672 77.52929688 C-115.51394534 79.25945151 -115.51394534 79.25945151 -110.49169922 80.16210938 C-109.43789062 80.28779297 -109.43789062 80.28779297 -108.36279297 80.41601562 C-107.64994141 80.49464844 -106.93708984 80.57328125 -106.20263672 80.65429688 C-105.09855469 80.78384766 -105.09855469 80.78384766 -103.97216797 80.91601562 C-102.17464489 81.12611572 -100.3762233 81.32850455 -98.57763672 81.52929688 C-98.57763672 81.85929687 -98.57763672 82.18929687 -98.57763672 82.52929688 C-99.27888672 82.42617187 -99.98013672 82.32304688 -100.70263672 82.21679688 C-104.80555809 82.66276659 -106.58142042 84.7880777 -109.57763672 87.52929688 C-110.34076172 88.04492188 -111.10388672 88.56054688 -111.89013672 89.09179688 C-113.90176638 90.80540732 -114.22218734 91.95228891 -114.57763672 94.52929688 C-113.91763672 94.19929688 -113.25763672 93.86929688 -112.57763672 93.52929688 C-110.97516617 93.40166648 -109.37047324 93.30103492 -107.76513672 93.21679688 C-103.18251971 92.79480049 -100.86005373 91.90825556 -97.57763672 88.52929688 C-96.81451172 87.78679687 -96.05138672 87.04429688 -95.26513672 86.27929688 C-94.70826172 85.70179687 -94.15138672 85.12429687 -93.57763672 84.52929688 C-95.55763672 83.53929688 -95.55763672 83.53929688 -97.57763672 82.52929688 C-95.59763672 82.52929688 -93.61763672 82.52929688 -91.57763672 82.52929688 C-92.05173655 85.08943594 -92.63544093 86.61253495 -94.14013672 88.77929688 C-96.1228172 92.57225083 -95.7935263 95.28346843 -95.57763672 99.52929688 C-98.54763672 100.51929687 -98.54763672 100.51929687 -101.57763672 101.52929688 C-96.95763672 101.52929688 -92.33763672 101.52929688 -87.57763672 101.52929688 C-87.57763672 95.58929688 -87.57763672 89.64929688 -87.57763672 83.52929688 C-84.60763672 83.52929688 -81.63763672 83.52929688 -78.57763672 83.52929688 C-78.57763672 83.85929687 -78.57763672 84.18929687 -78.57763672 84.52929688 C-81.21763672 84.52929688 -83.85763672 84.52929688 -86.57763672 84.52929688 C-86.57763672 89.80929688 -86.57763672 95.08929688 -86.57763672 100.52929688 C-80.32163067 100.00287923 -80.32163067 100.00287923 -76.14013672 96.96679688 C-75.29451172 96.16242188 -74.44888672 95.35804687 -73.57763672 94.52929688 C-72.91763672 94.85929687 -72.25763672 95.18929687 -71.57763672 95.52929688 C-73.22763672 97.83929688 -74.87763672 100.14929688 -76.57763672 102.52929688 C-75.91763672 102.85929688 -75.25763672 103.18929687 -74.57763672 103.52929688 C-73.91763672 103.19929687 -73.25763672 102.86929688 -72.57763672 102.52929688 C-70.02606017 102.45762338 -67.50290701 102.43621245 -64.95263672 102.46679688 C-63.89302734 102.47356445 -63.89302734 102.47356445 -62.81201172 102.48046875 C-61.06718397 102.49225813 -59.32239972 102.51019363 -57.57763672 102.52929688 C-57.57763672 105.16929687 -57.57763672 107.80929688 -57.57763672 110.52929688 C-49.98763672 110.52929688 -42.39763672 110.52929688 -34.57763672 110.52929688 C-34.57763672 107.88929688 -34.57763672 105.24929687 -34.57763672 102.52929688 C-33.91763672 102.52929688 -33.25763672 102.52929688 -32.57763672 102.52929688 C-32.57763672 104.50929687 -32.57763672 106.48929688 -32.57763672 108.52929688 C-30.59763672 108.52929688 -28.61763672 108.52929688 -26.57763672 108.52929688 C-26.57763672 106.54929688 -26.57763672 104.56929687 -26.57763672 102.52929688 C-25.91763672 102.85929688 -25.25763672 103.18929687 -24.57763672 103.52929688 C-24.90763672 105.83929688 -25.23763672 108.14929688 -25.57763672 110.52929688 C-25.24763672 109.86929688 -24.91763672 109.20929688 -24.57763672 108.52929688 C-22.59763672 108.52929688 -20.61763672 108.52929688 -18.57763672 108.52929688 C-18.57763672 109.51929688 -18.57763672 110.50929687 -18.57763672 111.52929688 C-21.54763672 111.85929688 -24.51763672 112.18929687 -27.57763672 112.52929688 C-27.90763672 113.51929688 -28.23763672 114.50929687 -28.57763672 115.52929688 C-29.56763672 114.86929688 -30.55763672 114.20929688 -31.57763672 113.52929688 C-34.50914483 113.37124645 -37.34022977 113.3301205 -40.26904297 113.38476562 C-41.14919571 113.3934819 -42.02934845 113.40219818 -42.93617249 113.41117859 C-44.83292872 113.43139381 -46.72963983 113.45626742 -48.62628174 113.48529053 C-51.56693005 113.52913723 -54.50737674 113.55769361 -57.44824219 113.58251953 C-62.45437526 113.62858399 -67.45953708 113.70319359 -72.46508789 113.79174805 C-74.5252221 113.82555318 -76.58546145 113.85339908 -78.64575195 113.87573242 C-81.67422105 113.90917389 -84.70185961 113.96133616 -87.72998047 114.01757812 C-89.10644997 114.02716301 -89.10644997 114.02716301 -90.51072693 114.03694153 C-97.07371264 114.17384381 -97.07371264 114.17384381 -102.57763672 117.52929688 C-103.67941691 119.96177261 -103.67941691 119.96177261 -104.08935547 122.79882812 C-104.28875732 123.84683594 -104.48815918 124.89484375 -104.69360352 125.97460938 C-104.97651245 127.64136719 -104.97651245 127.64136719 -105.26513672 129.34179688 C-105.47372314 130.46714844 -105.68230957 131.5925 -105.8972168 132.75195312 C-107.19785754 139.88877599 -108.32417745 147.03643496 -109.12060547 154.24804688 C-109.27142578 155.00085938 -109.42224609 155.75367188 -109.57763672 156.52929688 C-110.23763672 156.85929688 -110.89763672 157.18929687 -111.57763672 157.52929688 C-132.50807074 147.47668699 -148.54762193 125.66467704 -156.57763672 104.52929688 C-159.12630757 96.44557349 -161.24193112 88.01985086 -161.57763672 79.52929688 C-161.62919922 78.44777344 -161.68076172 77.36625 -161.73388672 76.25195312 C-162.44032057 48.20064224 -151.96521907 22.74975407 -132.82763672 2.34179688 C-96.23152272 -32.35511759 -37.41177928 -34.87597623 0 0 Z M-82.57763672 18.52929688 C-84.56326395 21.93721328 -86.57763672 25.51429001 -86.57763672 29.52929688 C-71.48704888 30.35089555 -56.6565985 30.624417 -41.57763672 29.52929688 C-42.47348851 22.02542937 -44.73994738 17.40222504 -50.80419922 12.63085938 C-62.29434566 5.49380806 -73.98430076 8.58612275 -82.57763672 18.52929688 Z M-117.57763672 80.52929688 C-117.24763672 81.51929687 -116.91763672 82.50929688 -116.57763672 83.52929688 C-115.91763672 83.19929688 -115.25763672 82.86929688 -114.57763672 82.52929688 C-114.90763672 81.86929688 -115.23763672 81.20929688 -115.57763672 80.52929688 C-116.23763672 80.52929688 -116.89763672 80.52929688 -117.57763672 80.52929688 Z M-110.57763672 103.52929688 C-110.57763672 105.50929687 -110.57763672 107.48929688 -110.57763672 109.52929688 C-110.24763672 109.52929688 -109.91763672 109.52929688 -109.57763672 109.52929688 C-109.24763672 107.54929688 -108.91763672 105.56929687 -108.57763672 103.52929688 C-109.23763672 103.52929688 -109.89763672 103.52929688 -110.57763672 103.52929688 Z M-101.57763672 103.52929688 C-101.57763672 105.50929687 -101.57763672 107.48929688 -101.57763672 109.52929688 C-101.24763672 109.52929688 -100.91763672 109.52929688 -100.57763672 109.52929688 C-100.57763672 107.54929688 -100.57763672 105.56929687 -100.57763672 103.52929688 C-100.90763672 103.52929688 -101.23763672 103.52929688 -101.57763672 103.52929688 Z M-72.57763672 103.52929688 C-72.57763672 105.50929687 -72.57763672 107.48929688 -72.57763672 109.52929688 C-71.91763672 108.53929687 -71.25763672 107.54929688 -70.57763672 106.52929688 C-70.90763672 105.86929688 -71.23763672 105.20929688 -71.57763672 104.52929688 C-70.58763672 104.19929687 -69.59763672 103.86929688 -68.57763672 103.52929688 C-69.89763672 103.52929688 -71.21763672 103.52929688 -72.57763672 103.52929688 Z M-64.57763672 103.52929688 C-64.57763672 105.50929687 -64.57763672 107.48929688 -64.57763672 109.52929688 C-64.24763672 109.52929688 -63.91763672 109.52929688 -63.57763672 109.52929688 C-63.57763672 107.87929687 -63.57763672 106.22929687 -63.57763672 104.52929688 C-62.91763672 104.19929687 -62.25763672 103.86929688 -61.57763672 103.52929688 C-62.56763672 103.52929688 -63.55763672 103.52929688 -64.57763672 103.52929688 Z M-95.57763672 104.52929688 C-94.57763672 106.52929688 -94.57763672 106.52929688 -94.57763672 106.52929688 Z M-83.57763672 105.52929688 C-82.57763672 107.52929688 -82.57763672 107.52929688 -82.57763672 107.52929688 Z " fill="#686868" transform="translate(164.57763671875,27.470703125)"/>
<path d="M0 0 C1.63039195 2.00408622 2.9670199 3.87900155 4.3125 6.0625 C4.89680786 6.99763428 4.89680786 6.99763428 5.49291992 7.95166016 C19.6586475 31.26880095 24.1868169 57.11138599 18.1484375 83.7578125 C11.43456007 108.59370055 -2.53247776 128.68831851 -24 143 C-25.32 143 -26.64 143 -28 143 C-28.10022461 142.21874756 -28.20044922 141.43749512 -28.30371094 140.63256836 C-28.77028107 137.06531698 -29.25991427 133.50159362 -29.75 129.9375 C-29.90726563 128.70837891 -30.06453125 127.47925781 -30.2265625 126.21289062 C-31.33606477 118.29701865 -32.79432452 113.15550526 -37.6875 106.8125 C-39.10524803 104.85465748 -39.67088683 103.38607046 -40 101 C-39 100 -39 100 -36.93359375 99.90234375 C-36.10988281 99.91394531 -35.28617188 99.92554688 -34.4375 99.9375 C-33.19806641 99.95103516 -33.19806641 99.95103516 -31.93359375 99.96484375 C-30.97646484 99.98224609 -30.97646484 99.98224609 -30 100 C-30 99.01 -30 98.02 -30 97 C-31.98 97 -33.96 97 -36 97 C-36 95.02 -36 93.04 -36 91 C-36.66 91 -37.32 91 -38 91 C-38 92.98 -38 94.96 -38 97 C-39.98 97 -41.96 97 -44 97 C-44 95.02 -44 93.04 -44 91 C-44.66 91 -45.32 91 -46 91 C-46 93.64 -46 96.28 -46 99 C-44.68 99.33 -43.36 99.66 -42 100 C-52.89 100 -63.78 100 -75 100 C-75 99.67 -75 99.34 -75 99 C-73.02 99 -71.04 99 -69 99 C-69.020625 97.865625 -69.04125 96.73125 -69.0625 95.5625 C-69 92 -69 92 -68 91 C-65.32941149 90.85884839 -62.67567762 90.95752893 -60 91 C-60.33 89.68 -60.66 88.36 -61 87 C-60.34 87.33 -59.68 87.66 -59 88 C-57.46331135 88.22467831 -55.92031946 88.40796805 -54.375 88.5625 C-52.93125 88.706875 -51.4875 88.85125 -50 89 C-50 83.39 -50 77.78 -50 72 C-47.29120665 70.64560332 -44.99066732 70.93498549 -42 71 C-42.99 71.66 -43.98 72.32 -45 73 C-44.4225 73.62648438 -43.845 74.25296875 -43.25 74.8984375 C-42.5075 75.71570313 -41.765 76.53296875 -41 77.375 C-40.2575 78.18710938 -39.515 78.99921875 -38.75 79.8359375 C-37 82 -37 82 -37 84 C-36.01 84.33 -35.02 84.66 -34 85 C-33.01 86.485 -33.01 86.485 -32 88 C-29.390379 88.38411275 -26.9941926 88.60293197 -24.375 88.6875 C-23.66859375 88.72166016 -22.9621875 88.75582031 -22.234375 88.79101562 C-20.49014312 88.87351308 -18.74509605 88.93843335 -17 89 C-18.38131976 84.90603716 -18.38131976 84.90603716 -21.75 82.25 C-25.53772825 79.62772659 -27.20389901 76.94139208 -29.5078125 73.0234375 C-31.0675949 70.58751477 -31.0675949 70.58751477 -35 69 C-30.05 68.01 -25.1 67.02 -20 66 C-20.02618408 64.45094971 -20.05236816 62.90189941 -20.0793457 61.3059082 C-20.16987119 55.55670627 -20.22725906 49.80756729 -20.2746582 44.05786133 C-20.29979671 41.56979782 -20.33391247 39.08180812 -20.37719727 36.59399414 C-20.4378743 33.01690459 -20.46621734 29.44079165 -20.48828125 25.86328125 C-20.51408768 24.75165115 -20.5398941 23.64002106 -20.56648254 22.4947052 C-20.5693006 14.7290204 -20.5693006 14.7290204 -17.58691406 10.90991211 C-16.3063916 9.96450562 -16.3063916 9.96450562 -15 9 C-13.19034104 6.66738347 -11.46603873 4.28980923 -9.74609375 1.890625 C-6.8991665 -1.19195395 -3.81912612 -1.78028896 0 0 Z M-67 92 C-67 93.65 -67 95.3 -67 97 C-66.01 96.34 -65.02 95.68 -64 95 C-64.66 95 -65.32 95 -66 95 C-65.67 94.01 -65.34 93.02 -65 92 C-65.66 92 -66.32 92 -67 92 Z M-64 92 C-63.01 92.33 -62.02 92.66 -61 93 C-60.67 93.66 -60.34 94.32 -60 95 C-60 94.01 -60 93.02 -60 92 C-61.32 92 -62.64 92 -64 92 Z M-63 95 C-63 95.66 -63 96.32 -63 97 C-62.34 97 -61.68 97 -61 97 C-61 96.34 -61 95.68 -61 95 C-61.66 95 -62.32 95 -63 95 Z " fill="#3E3E3E" transform="translate(176,39)"/>
<path d="M0 0 C1.64162109 -0.12568359 1.64162109 -0.12568359 3.31640625 -0.25390625 C6.79833377 0.6568858 7.18953552 1.05426295 9.109375 3.91015625 C11.83853943 8.88304318 13.50532337 14.14636037 15.125 19.5625 C15.41955078 20.50867188 15.71410156 21.45484375 16.01757812 22.4296875 C16.85085952 25.13363883 17.65399774 27.84374198 18.4375 30.5625 C18.65229004 31.30757812 18.86708008 32.05265625 19.08837891 32.8203125 C20.17209161 36.8240553 20.64470292 40.41844156 20.4375 44.5625 C11.08872689 47.46563102 2.10078967 47.86463481 -7.625 47.875 C-9.40934448 47.88273437 -9.40934448 47.88273437 -11.22973633 47.890625 C-16.53624313 47.84832703 -20.67949205 47.81073106 -25.5625 45.5625 C-24.26620128 15.78174268 -24.26620128 15.78174268 -20.5625 5.5625 C-18.828125 4.0390625 -18.828125 4.0390625 -16.8125 3.1875 C-16.15765625 2.89101562 -15.5028125 2.59453125 -14.828125 2.2890625 C-10.02250927 0.74795125 -5.0210904 0.27862013 0 0 Z " fill="#171717" transform="translate(106.5625,148.4375)"/>
<path d="M0 0 C2.99325884 -0.27933256 5.77669377 -0.37165202 8.76953125 -0.328125 C10.07926155 -0.32531525 10.07926155 -0.32531525 11.41545105 -0.32244873 C13.26569424 -0.31571821 15.11592297 -0.30178396 16.96606445 -0.28125 C19.79066277 -0.25023974 22.61470184 -0.24029329 25.43945312 -0.234375 C27.23698593 -0.22519875 29.03451308 -0.21482101 30.83203125 -0.203125 C31.67490189 -0.19887512 32.51777252 -0.19462524 33.38618469 -0.19024658 C37.38246476 -0.14189069 41.09974224 0.01369384 45 1 C45 1.33 45 1.66 45 2 C42.69 2 40.38 2 38 2 C38.1546875 3.918125 38.1546875 3.918125 38.3125 5.875 C38.37050781 6.59429687 38.42851563 7.31359375 38.48828125 8.0546875 C38.87393036 10.39519216 38.87393036 10.39519216 42 12 C41.34 12.66 40.68 13.32 40 14 C40.99 14.33 41.98 14.66 43 15 C44.36728536 23.46181649 43.54476463 31.22006836 42.04907227 39.59228516 C41.68235046 41.65395008 41.34083963 43.71875139 41.00195312 45.78515625 C39.72137932 53.23241256 39.72137932 53.23241256 39 56 C38.01 56.495 38.01 56.495 37 57 C23.46087699 50.49733877 9.38516095 36.99788327 2 24 C0.7 19.6 0.7 19.6 2 17 C1.34 17 0.68 17 0 17 C-0.38955051 14.73161744 -0.76119129 12.46015313 -1.125 10.1875 C-1.33382813 8.92292969 -1.54265625 7.65835938 -1.7578125 6.35546875 C-2 3 -2 3 0 0 Z " fill="#17100C" transform="translate(16,128)"/>
<path d="M0 0 C1.29099861 0.00022659 1.29099861 0.00022659 2.608078 0.00045776 C3.99571098 0.01594162 3.99571098 0.01594162 5.41137695 0.03173828 C6.36156204 0.03456818 7.31174713 0.03739807 8.29072571 0.04031372 C11.32716435 0.05151363 14.36330863 0.0766179 17.3996582 0.10205078 C19.45759665 0.11208082 21.51553972 0.12120663 23.57348633 0.12939453 C28.6198238 0.15145236 33.66594108 0.18598096 38.7121582 0.22705078 C38.77002488 4.01865375 38.80570874 7.81014389 38.8371582 11.60205078 C38.85391602 12.68228516 38.87067383 13.76251953 38.88793945 14.87548828 C38.89760742 16.42236328 38.89760742 16.42236328 38.9074707 18.00048828 C38.92318115 19.43013916 38.92318115 19.43013916 38.93920898 20.88867188 C38.7121582 23.22705078 38.7121582 23.22705078 36.7121582 25.22705078 C34.5871582 25.85205078 34.5871582 25.85205078 32.7121582 26.22705078 C32.7121582 27.54705078 32.7121582 28.86705078 32.7121582 30.22705078 C32.62726456 34.72641378 31.97671843 37.38308729 28.8996582 40.60205078 C15.03804089 53.22705078 15.03804089 53.22705078 8.7121582 53.22705078 C8.61193359 52.44579834 8.51170898 51.6645459 8.40844727 50.85961914 C7.94187713 47.29236776 7.45224393 43.7286444 6.9621582 40.16455078 C6.80489258 38.93542969 6.64762695 37.70630859 6.4855957 36.43994141 C5.37609343 28.52406944 3.91783369 23.38255604 -0.9753418 17.03955078 C-2.39308983 15.08170826 -2.95872863 13.61312124 -3.2878418 11.22705078 C-2.2878418 10.22705078 -2.2878418 10.22705078 -0.22143555 10.12939453 C1.01413086 10.14679688 1.01413086 10.14679688 2.2746582 10.16455078 C3.10094727 10.17357422 3.92723633 10.18259766 4.77856445 10.19189453 C5.41665039 10.20349609 6.05473633 10.21509766 6.7121582 10.22705078 C6.7121582 9.23705078 6.7121582 8.24705078 6.7121582 7.22705078 C4.7321582 7.22705078 2.7521582 7.22705078 0.7121582 7.22705078 C0.7121582 5.24705078 0.7121582 3.26705078 0.7121582 1.22705078 C0.0521582 1.22705078 -0.6078418 1.22705078 -1.2878418 1.22705078 C-1.2878418 3.20705078 -1.2878418 5.18705078 -1.2878418 7.22705078 C-3.2678418 7.22705078 -5.2478418 7.22705078 -7.2878418 7.22705078 C-7.4753418 4.85205078 -7.4753418 4.85205078 -7.2878418 2.22705078 C-4.17476243 0.15166454 -3.52435985 -0.02067073 0 0 Z M32.7121582 26.22705078 C33.3721582 26.88705078 34.0321582 27.54705078 34.7121582 28.22705078 C34.0521582 28.22705078 33.3921582 28.22705078 32.7121582 28.22705078 C32.7121582 27.56705078 32.7121582 26.90705078 32.7121582 26.22705078 Z " fill="#140E09" transform="translate(139.287841796875,128.77294921875)"/>
<path d="M0 0 C4.29 0 8.58 0 13 0 C13.66 0.99 14.32 1.98 15 3 C15.66 3 16.32 3 17 3 C18.36728536 11.46181649 17.54476463 19.22006836 16.04907227 27.59228516 C15.68235046 29.65395008 15.34083963 31.71875139 15.00195312 33.78515625 C13.72137932 41.23241256 13.72137932 41.23241256 13 44 C12.01 44.495 12.01 44.495 11 45 C8.46875 43.671875 8.46875 43.671875 5.5 41.75 C4.5203125 41.12609375 3.540625 40.5021875 2.53125 39.859375 C0 38 0 38 -2 35 C-1.34 35 -0.68 35 0 35 C0 23.45 0 11.9 0 0 Z " fill="#434343" transform="translate(42,140)"/>
<path d="M0 0 C1.65 0 3.3 0 5 0 C5.33 1.65 5.66 3.3 6 5 C5.34 5 4.68 5 4 5 C4.33 7.31 4.66 9.62 5 12 C4.01 12.495 4.01 12.495 3 13 C3 15.64 3 18.28 3 21 C2.4225 21.185625 1.845 21.37125 1.25 21.5625 C-2.08569135 23.69363614 -3.71193892 26.34316318 -5 30 C-5.34315572 33.12473565 -5.49934062 36.18505111 -5.53125 39.328125 C-6 42 -6 42 -7.84765625 43.8671875 C-10.9434451 45.49655005 -12.68412776 44.94739207 -16 44 C-18.8125 42.9375 -18.8125 42.9375 -21 41 C-22.07193105 38.26983307 -22.39854668 35.90939073 -22 33 C-19.75 30.1875 -19.75 30.1875 -17 28 C-14.03516357 25.37726008 -12.51233399 22.67281111 -11 19 C-10.74803177 15.74899636 -10.74803177 15.74899636 -11 13 C-10.34 13 -9.68 13 -9 13 C-8.67 12.01 -8.34 11.02 -8 10 C-7.34 10 -6.68 10 -6 10 C-5.9175 9.4225 -5.835 8.845 -5.75 8.25 C-4.7924861 5.3774583 -3.18571625 4.04910899 -1 2 C-0.67 1.34 -0.34 0.68 0 0 Z " fill="#ADADAD" transform="translate(112,64)"/>
<path d="M0 0 C2.97 0 5.94 0 9 0 C9.33 12.54 9.66 25.08 10 38 C10.99 38 11.98 38 13 38 C13 36.35 13 34.7 13 33 C16 32 16 32 19 33 C19.33 22.11 19.66 11.22 20 0 C21.65 0 23.3 0 25 0 C25.0501123 0.71655762 25.10022461 1.43311523 25.15185547 2.17138672 C25.38343574 5.40668385 25.62903668 8.64076592 25.875 11.875 C25.95363281 13.00292969 26.03226563 14.13085938 26.11328125 15.29296875 C26.23896484 16.90751953 26.23896484 16.90751953 26.3671875 18.5546875 C26.44050293 19.54968262 26.51381836 20.54467773 26.58935547 21.56982422 C26.78808421 24.17435621 26.78808421 24.17435621 29 26 C24.95861456 30.42560166 20.56492272 34.29189534 15.8125 37.9375 C14.80832031 38.70964844 13.80414063 39.48179687 12.76953125 40.27734375 C10 42 10 42 6 42 C5.89977539 41.21874756 5.79955078 40.43749512 5.69628906 39.63256836 C5.22971893 36.06531698 4.74008573 32.50159362 4.25 28.9375 C4.09273437 27.70837891 3.93546875 26.47925781 3.7734375 25.21289062 C2.83975351 18.55141448 1.87504259 13.53577513 -2 8 C-2.86625 6.5459375 -2.86625 6.5459375 -3.75 5.0625 C-4.1625 4.381875 -4.575 3.70125 -5 3 C-3 3 -3 3 -1.375 4.5 C-0.92125 4.995 -0.4675 5.49 0 6 C-0.33 5.01 -0.66 4.02 -1 3 C-0.67 2.01 -0.34 1.02 0 0 Z " fill="#545252" transform="translate(142,140)"/>
<path d="M0 0 C0.66 0.33 1.32 0.66 2 1 C-0.475 4.465 -0.475 4.465 -3 8 C0.3 8 3.6 8 7 8 C8.63612664 29.56918329 8.63612664 29.56918329 4.94921875 35.046875 C2.3351927 36.79730429 -0.05322253 37.92023191 -3 39 C-4.68282747 39.97255822 -6.35462518 40.96534088 -8 42 C-6.72108974 12.61871949 -6.72108974 12.61871949 -3 2 C-2.01 1.34 -1.02 0.68 0 0 Z " fill="#414141" transform="translate(89,152)"/>
<path d="M0 0 C-0.99 0.66 -1.98 1.32 -3 2 C-2.1028125 3.0828125 -2.1028125 3.0828125 -1.1875 4.1875 C2.30213049 8.67416778 4.15491602 11.26810737 4 17 C4.66 17.66 5.32 18.32 6 19 C4.71073008 19.36279456 3.41846728 19.71496698 2.125 20.0625 C1.04605469 20.35833984 1.04605469 20.35833984 -0.0546875 20.66015625 C-2 21 -2 21 -4 20 C-4 22.64 -4 25.28 -4 28 C-2.68 28.33 -1.36 28.66 0 29 C-10.89 29 -21.78 29 -33 29 C-33 28.67 -33 28.34 -33 28 C-31.02 28 -29.04 28 -27 28 C-27.020625 26.865625 -27.04125 25.73125 -27.0625 24.5625 C-27 21 -27 21 -26 20 C-23.32941149 19.85884839 -20.67567762 19.95752893 -18 20 C-18.33 18.68 -18.66 17.36 -19 16 C-18.34 16.33 -17.68 16.66 -17 17 C-15.46331135 17.22467831 -13.92031946 17.40796805 -12.375 17.5625 C-10.93125 17.706875 -9.4875 17.85125 -8 18 C-8 12.39 -8 6.78 -8 1 C-5.29120665 -0.35439668 -2.99066732 -0.06501451 0 0 Z M-25 21 C-25 22.65 -25 24.3 -25 26 C-24.01 25.34 -23.02 24.68 -22 24 C-22.66 24 -23.32 24 -24 24 C-23.67 23.01 -23.34 22.02 -23 21 C-23.66 21 -24.32 21 -25 21 Z M-22 21 C-21.01 21.33 -20.02 21.66 -19 22 C-18.67 22.66 -18.34 23.32 -18 24 C-18 23.01 -18 22.02 -18 21 C-19.32 21 -20.64 21 -22 21 Z M-21 24 C-21 24.66 -21 25.32 -21 26 C-20.34 26 -19.68 26 -19 26 C-19 25.34 -19 24.68 -19 24 C-19.66 24 -20.32 24 -21 24 Z " fill="#272626" transform="translate(134,110)"/>
<path d="M0 0 C2.35562657 2.86728769 3.65220724 5.38651717 4.75390625 8.921875 C5.05103516 9.86546875 5.34816406 10.8090625 5.65429688 11.78125 C5.95400391 12.7609375 6.25371094 13.740625 6.5625 14.75 C6.86607422 15.71421875 7.16964844 16.6784375 7.48242188 17.671875 C12.33784589 33.24308229 12.33784589 33.24308229 12 40 C9.525 40.495 9.525 40.495 7 41 C7.33 40.01 7.66 39.02 8 38 C6.68 37.67 5.36 37.34 4 37 C1.03 35.35 -1.94 33.7 -5 32 C-5 23.75 -5 15.5 -5 7 C-3.02 7 -1.04 7 1 7 C0.67 4.69 0.34 2.38 0 0 Z " fill="#464646" transform="translate(115,153)"/>
<path d="M0 0 C0.66 0.28875 1.32 0.5775 2 0.875 C2.33 2.525 2.66 4.175 3 5.875 C-3.435 10.825 -3.435 10.825 -10 15.875 C-7.91845779 20.03808441 -5.59565931 22.51905484 -2.36328125 25.77734375 C-1 27.875 -1 27.875 -1.29296875 30.62890625 C-1.52628906 31.37011719 -1.75960937 32.11132812 -2 32.875 C-4.65665976 33.36530632 -6.3742624 33.3053936 -8.63134766 31.75292969 C-10.43562921 30.15015991 -12.12780385 28.47789349 -13.8125 26.75 C-14.40998047 26.18023437 -15.00746094 25.61046875 -15.62304688 25.0234375 C-18.39067008 22.2399993 -19.8525801 20.6111951 -20.63671875 16.6953125 C-19.84454382 13.18641498 -18.77441989 12.12452964 -16 9.875 C-15.18015625 9.20597656 -14.3603125 8.53695312 -13.515625 7.84765625 C-12.68546875 7.19667969 -11.8553125 6.54570313 -11 5.875 C-10.27296875 5.25496094 -9.5459375 4.63492188 -8.796875 3.99609375 C-3.7486198 -0.15619249 -3.7486198 -0.15619249 0 0 Z " fill="#AAAAAA" transform="translate(84,69.125)"/>
<path d="M0 0 C4.86716452 0.6981379 7.40392489 3.85245591 10.75 7.1875 C11.35199219 7.75275391 11.95398438 8.31800781 12.57421875 8.90039062 C15.31597429 11.61416907 16.83116532 13.29725877 17.74609375 17.10546875 C16.72644952 21.06126128 14.46179497 22.7842579 11.3125 25.125 C10.78205078 25.54136719 10.25160156 25.95773438 9.70507812 26.38671875 C8.14797027 27.60565717 6.57412204 28.80311423 5 30 C4.1028125 30.76570313 3.205625 31.53140625 2.28125 32.3203125 C0 34 0 34 -2.8125 33.75 C-3.534375 33.5025 -4.25625 33.255 -5 33 C-5.33 31.35 -5.66 29.7 -6 28 C-5.24074219 27.38511719 -4.48148437 26.77023438 -3.69921875 26.13671875 C-2.20841797 24.92435547 -2.20841797 24.92435547 -0.6875 23.6875 C0.29863281 22.88699219 1.28476563 22.08648437 2.30078125 21.26171875 C4.31602166 19.57311644 6.19488009 17.90369301 8 16 C7.26652344 15.33613281 6.53304687 14.67226562 5.77734375 13.98828125 C4.84019531 13.10527344 3.90304688 12.22226563 2.9375 11.3125 C1.99777344 10.44238281 1.05804688 9.57226562 0.08984375 8.67578125 C-2 6 -2 6 -1.87109375 3.23046875 C-1 1 -1 1 0 0 Z " fill="#ABABAB" transform="translate(123,70)"/>
<path d="M0 0 C0.495 0.99 0.495 0.99 1 2 C1.66 2.165 2.32 2.33 3 2.5 C3.66 2.665 4.32 2.83 5 3 C5.495 3.99 5.495 3.99 6 5 C5.18208984 4.76603516 5.18208984 4.76603516 4.34765625 4.52734375 C-2.65210048 2.72056893 -9.08132038 2.25657435 -15.6875 5.625 C-22.37383122 9.93776121 -25.64909758 15.55547567 -28 23 C-33.15795631 23.17786056 -37.18029285 23.11596899 -42 21 C-43 19 -43 19 -41.875 15.4375 C-40 12 -40 12 -37.875 11 C-34.53302878 11 -31.37192404 11.44466903 -28.0859375 12.0390625 C-25.92074706 12.20255369 -25.92074706 12.20255369 -24.2890625 10.7109375 C-22.79575384 8.91776635 -22.79575384 8.91776635 -22 6 C-14.87803469 1.85932249 -8.08583987 0.60723699 0 0 Z " fill="#7D7D7D" transform="translate(106,34)"/>
<path d="M0 0 C1.65 0 3.3 0 5 0 C5.0501123 0.71655762 5.10022461 1.43311523 5.15185547 2.17138672 C5.38343574 5.40668385 5.62903668 8.64076592 5.875 11.875 C5.95363281 13.00292969 6.03226563 14.13085938 6.11328125 15.29296875 C6.19707031 16.36933594 6.28085938 17.44570312 6.3671875 18.5546875 C6.44050293 19.54968262 6.51381836 20.54467773 6.58935547 21.56982422 C6.78808421 24.17435621 6.78808421 24.17435621 9 26 C4.38679214 30.8727008 -0.40040051 35.27148619 -6 39 C-6.33 39 -6.66 39 -7 39 C-7 37.02 -7 35.04 -7 33 C-4 32 -4 32 -1 33 C-0.67 22.11 -0.34 11.22 0 0 Z " fill="#3B3939" transform="translate(162,140)"/>
<path d="M0 0 C7.75 -0.125 7.75 -0.125 10 1 C10.66 0.67 11.32 0.34 12 0 C14.55157655 -0.0716735 17.07472971 -0.09308442 19.625 -0.0625 C20.68460938 -0.05573242 20.68460938 -0.05573242 21.765625 -0.04882812 C23.51045275 -0.03703875 25.255237 -0.01910324 27 0 C27 2.64 27 5.28 27 8 C23.10342997 8.84250163 19.28706406 9.1445739 15.3125 9.25 C13.91451172 9.28867188 13.91451172 9.28867188 12.48828125 9.328125 C9.60489106 8.94789772 8.76675948 8.24537994 7 6 C7 6.66 7 7.32 7 8 C4.69 8 2.38 8 0 8 C0 5.36 0 2.72 0 0 Z M12 1 C12 2.98 12 4.96 12 7 C12.66 6.01 13.32 5.02 14 4 C13.67 3.34 13.34 2.68 13 2 C13.99 1.67 14.98 1.34 16 1 C14.68 1 13.36 1 12 1 Z M20 1 C20 2.98 20 4.96 20 7 C20.33 7 20.66 7 21 7 C21 5.35 21 3.7 21 2 C21.66 1.67 22.32 1.34 23 1 C22.01 1 21.02 1 20 1 Z M1 3 C2 5 2 5 2 5 Z " fill="#5E5A58" transform="translate(80,130)"/>
<path d="M0 0 C1.32 0.33 2.64 0.66 4 1 C4.33 7.27 4.66 13.54 5 20 C-0.28 20 -5.56 20 -11 20 C-10.67 19.34 -10.34 18.68 -10 18 C-6.9375 17.375 -6.9375 17.375 -4 17 C-4.268125 15.865625 -4.53625 14.73125 -4.8125 13.5625 C-5.55679156 8.08803973 -2.95629751 4.41910215 0 0 Z " fill="#141414" transform="translate(73,110)"/>
<path d="M0 0 C0.33 0 0.66 0 1 0 C0.97679688 1.27617188 0.95359375 2.55234375 0.9296875 3.8671875 C0.91093171 5.5364525 0.89273131 7.2057238 0.875 8.875 C0.85824219 9.71675781 0.84148437 10.55851562 0.82421875 11.42578125 C0.81777344 12.23144531 0.81132813 13.03710938 0.8046875 13.8671875 C0.79421387 14.61081543 0.78374023 15.35444336 0.77294922 16.12060547 C0.8334403 18.24490235 0.8334403 18.24490235 3 20 C3.125 23.625 3.125 23.625 3 27 C2.34 27 1.68 27 1 27 C1 26.34 1 25.68 1 25 C-0.32 25 -1.64 25 -3 25 C-3 25.66 -3 26.32 -3 27 C-3.66 27 -4.32 27 -5 27 C-5 24.36 -5 21.72 -5 19 C-5.99 19.33 -6.98 19.66 -8 20 C-9.22969878 23.51190809 -9.22969878 23.51190809 -10 27 C-11.98 26.34 -13.96 25.68 -16 25 C-16 25.66 -16 26.32 -16 27 C-16.99 26.67 -17.98 26.34 -19 26 C-19.04254356 24.00045254 -19.04080783 21.99958364 -19 20 C-18 19 -18 19 -16.15234375 18.90234375 C-14.1015625 18.93489583 -12.05078125 18.96744792 -10 19 C-10.33 17.68 -10.66 16.36 -11 15 C-10.34 15.33 -9.68 15.66 -9 16 C-7.46331135 16.22467831 -5.92031946 16.40796805 -4.375 16.5625 C-2.93125 16.706875 -1.4875 16.85125 0 17 C0 11.39 0 5.78 0 0 Z M-17 20 C-17 21.65 -17 23.3 -17 25 C-16.01 24.34 -15.02 23.68 -14 23 C-14.66 23 -15.32 23 -16 23 C-15.67 22.01 -15.34 21.02 -15 20 C-15.66 20 -16.32 20 -17 20 Z M-14 20 C-13.01 20.33 -12.02 20.66 -11 21 C-10.67 21.66 -10.34 22.32 -10 23 C-10 22.01 -10 21.02 -10 20 C-11.32 20 -12.64 20 -14 20 Z M-13 23 C-13 23.66 -13 24.32 -13 25 C-12.34 25 -11.68 25 -11 25 C-11 24.34 -11 23.68 -11 23 C-11.66 23 -12.32 23 -13 23 Z " fill="#918F8C" transform="translate(126,111)"/>
<path d="M0 0 C1.32 0 2.64 0 4 0 C4 8.58 4 17.16 4 26 C4.66 26.33 5.32 26.66 6 27 C3 27 3 27 0.95703125 25.03125 C0.24933594 24.1959375 -0.45835938 23.360625 -1.1875 22.5 C-1.90292969 21.6646875 -2.61835938 20.829375 -3.35546875 19.96875 C-3.89816406 19.3190625 -4.44085937 18.669375 -5 18 C-4.505 16.515 -4.505 16.515 -4 15 C-3.01 15.33 -2.02 15.66 -1 16 C-0.67 10.72 -0.34 5.44 0 0 Z " fill="#322E2D" transform="translate(27,140)"/>
<path d="M0 0 C-3.7065521 1.23551737 -4.76904388 0.58410709 -8.375 -0.75 C-27.62195298 -7.38847001 -48.37610501 -8.41550413 -68 -2 C-69.96730878 -0.54365697 -69.96730878 -0.54365697 -71 1 C-71.33 0.34 -71.66 -0.32 -72 -1 C-74.02463255 -1.65213292 -74.02463255 -1.65213292 -76 -2 C-49.6282258 -10.74608208 -25.89855564 -10.61496778 0 0 Z " fill="#D1D1D1" transform="translate(140,11)"/>
<path d="M0 0 C19.14 0 38.28 0 58 0 C58 0.33 58 0.66 58 1 C57.15221733 1.00879936 57.15221733 1.00879936 56.28730774 1.01777649 C50.3983231 1.08177072 44.5098819 1.16620584 38.62133789 1.26245117 C36.42447073 1.29568055 34.2275186 1.32371866 32.03051758 1.34643555 C28.87023757 1.38001754 25.71073479 1.43233634 22.55078125 1.48828125 C21.08020012 1.49786613 21.08020012 1.49786613 19.57991028 1.50764465 C12.79867866 1.64904811 12.79867866 1.64904811 7 5 C5.67206394 7.06700655 5.67206394 7.06700655 5 9 C4.67 9 4.34 9 4 9 C4 7.02 4 5.04 4 3 C3.01 3.33 2.02 3.66 1 4 C0.67 2.68 0.34 1.36 0 0 Z " fill="#9E9D9C" transform="translate(55,140)"/>
<path d="M0 0 C0.66 0 1.32 0 2 0 C2 1.98 2 3.96 2 6 C3.98 6 5.96 6 8 6 C8 4.02 8 2.04 8 0 C8.66 0.33 9.32 0.66 10 1 C9.67 3.31 9.34 5.62 9 8 C9.33 7.34 9.66 6.68 10 6 C11.98 6 13.96 6 16 6 C16 6.99 16 7.98 16 9 C11.545 9.495 11.545 9.495 7 10 C6.67 10.99 6.34 11.98 6 13 C5.01 12.34 4.02 11.68 3 11 C0.8729569 10.72558628 0.8729569 10.72558628 -1.44921875 10.8046875 C-2.29677734 10.81113281 -3.14433594 10.81757813 -4.01757812 10.82421875 C-5.33918945 10.84935547 -5.33918945 10.84935547 -6.6875 10.875 C-8.02651367 10.88853516 -8.02651367 10.88853516 -9.39257812 10.90234375 C-11.59532314 10.92590252 -13.79752588 10.95879671 -16 11 C-16.33 10.34 -16.66 9.68 -17 9 C-8.585 8.505 -8.585 8.505 0 8 C0 5.36 0 2.72 0 0 Z " fill="#6F6C6A" transform="translate(130,130)"/>
<path d="M0 0 C0.99 0 1.98 0 3 0 C3 2.64 3 5.28 3 8 C3.66 8 4.32 8 5 8 C5 7.34 5 6.68 5 6 C5.99 6 6.98 6 8 6 C7.67 6.99 7.34 7.98 7 9 C-0.92 9 -8.84 9 -17 9 C-17 8.67 -17 8.34 -17 8 C-10.25 6.875 -10.25 6.875 -8 8 C-8 7.34 -8 6.68 -8 6 C-5.83125748 6.50603992 -4.00032373 6.99983813 -2 8 C-1.855625 6.865625 -1.71125 5.73125 -1.5625 4.5625 C-1 1 -1 1 0 0 Z " fill="#1A1613" transform="translate(118,130)"/>
<path d="M0 0 C2.97 0 5.94 0 9 0 C9 0.99 9 1.98 9 3 C7.35 3.33 5.7 3.66 4 4 C4 6.31 4 8.62 4 11 C-0.41889613 9.64978174 -2.34345343 7.73884332 -5 4 C-4.34 3.67 -3.68 3.34 -3 3 C-2.01 3.99 -1.02 4.98 0 6 C-0.33 5.01 -0.66 4.02 -1 3 C-0.67 2.01 -0.34 1.02 0 0 Z " fill="#353434" transform="translate(142,140)"/>
<path d="M0 0 C2.33294775 -0.04241723 4.66702567 -0.04092937 7 0 C8 1 8 1 8.0625 4.5625 C8.041875 5.696875 8.02125 6.83125 8 8 C5.36 8 2.72 8 0 8 C0 5.36 0 2.72 0 0 Z " fill="#9D9A97" transform="translate(71,130)"/>
<path d="M0 0 C0.33 0.66 0.66 1.32 1 2 C1.66 2.165 2.32 2.33 3 2.5 C3.66 2.665 4.32 2.83 5 3 C5.33 3.66 5.66 4.32 6 5 C5.18208984 4.76603516 5.18208984 4.76603516 4.34765625 4.52734375 C-2.6984943 2.70859378 -9.12149812 2.25846981 -15.75 5.6875 C-19.28299427 8.20136131 -21.41581171 10.55441562 -24 14 C-25 11 -25 11 -23.9375 8.5 C-20.08904839 3.53425599 -13.49608393 1.46194502 -7.3984375 0.65625 C-4.93364254 0.40629896 -2.4704094 0.18552482 0 0 Z " fill="#BCBCBC" transform="translate(106,34)"/>
<path d="M0 0 C0.21755666 5.4389165 0.10428384 9.87080814 -2 15 C-4.56417383 12.43582617 -5.25787287 10.47083523 -5.375 6.9375 C-5 3 -5 3 -3.625 1 C-2 0 -2 0 0 0 Z " fill="#161616" transform="translate(59,143)"/>
<path d="M0 0 C2 1.375 2 1.375 4 3 C4 3.66 4 4.32 4 5 C4.99 5.33 5.98 5.66 7 6 C7.99 7.485 7.99 7.485 9 9 C11.609621 9.38411275 14.0058074 9.60293197 16.625 9.6875 C17.33140625 9.72166016 18.0378125 9.75582031 18.765625 9.79101562 C20.50985688 9.87351308 22.25490395 9.93843335 24 10 C24.33 8.68 24.66 7.36 25 6 C25 7.65 25 9.3 25 11 C21.72924117 11.0580476 18.45861476 11.09361165 15.1875 11.125 C14.25873047 11.14175781 13.32996094 11.15851563 12.37304688 11.17578125 C11.48037109 11.18222656 10.58769531 11.18867188 9.66796875 11.1953125 C8.84578857 11.20578613 8.0236084 11.21625977 7.17651367 11.22705078 C5 11 5 11 2 9 C1.95615553 7.33391013 1.9603287 5.66619446 2 4 C1.08431094 1.74867483 1.08431094 1.74867483 0 0 Z " fill="#8F8D8C" transform="translate(135,118)"/>
<path d="M0 0 C3.3 0 6.6 0 10 0 C9.67 0.99 9.34 1.98 9 3 C8.401875 2.814375 7.80375 2.62875 7.1875 2.4375 C4.83591238 1.77906313 4.83591238 1.77906313 2 3 C1.67 11.91 1.34 20.82 1 30 C0.67 30 0.34 30 0 30 C0 20.1 0 10.2 0 0 Z " fill="#302C2B" transform="translate(42,140)"/>
<path d="M0 0 C1.65 0 3.3 0 5 0 C5.33 1.65 5.66 3.3 6 5 C5.34 5 4.68 5 4 5 C4.33 7.31 4.66 9.62 5 12 C4.01 12.33 3.02 12.66 2 13 C2.04125 12.05125 2.0825 11.1025 2.125 10.125 C2.34973818 6.89755144 2.34973818 6.89755144 0 5 C-0.66 4.67 -1.32 4.34 -2 4 C-1.34 2.68 -0.68 1.36 0 0 Z " fill="#A0A0A0" transform="translate(112,64)"/>
<path d="M0 0 C1.98 0 3.96 0 6 0 C6.82638376 2.89234315 7 4.88742431 7 8 C4.69 8 2.38 8 0 8 C0 5.36 0 2.72 0 0 Z " fill="#8D8885" transform="translate(63,130)"/>
<path d="M0 0 C1.98 0 3.96 0 6 0 C5.12746758 4.71167505 3.41570757 7.97361201 -0.5 10.8125 C-5.36679233 12.46373311 -9.90929578 12.2445712 -15 12 C-15 11.67 -15 11.34 -15 11 C-14.00419922 10.96132812 -14.00419922 10.96132812 -12.98828125 10.921875 C-7.41870888 10.56412145 -4.04434483 10.16329615 0 6 C0.763125 5.2575 1.52625 4.515 2.3125 3.75 C2.869375 3.1725 3.42625 2.595 4 2 C2.68 1.34 1.36 0.68 0 0 Z " fill="#929292" transform="translate(67,110)"/>
<path d="M0 0 C1.65 0.33 3.3 0.66 5 1 C5.39169887 3.66355234 5.40564529 5.39224373 3.88671875 7.66796875 C2.63610683 9.1510888 1.32135486 10.57954352 0 12 C-1.1875 10.3125 -1.1875 10.3125 -2 8 C-1.04906703 6.30485863 -0.04892238 4.63631892 1 3 C0.67 2.01 0.34 1.02 0 0 Z M-2 2 C-1.34 2 -0.68 2 0 2 C-0.33 2.66 -0.66 3.32 -1 4 C-1.33 3.34 -1.66 2.68 -2 2 Z " fill="#332E29" transform="translate(172,153)"/>
<path d="M0 0 C0 0.33 0 0.66 0 1 C-0.99 1.12117187 -1.98 1.24234375 -3 1.3671875 C-14.68931317 2.13792585 -14.68931317 2.13792585 -25 6.625 C-25.33 7.07875 -25.66 7.5325 -26 8 C-26.33 7.34 -26.66 6.68 -27 6 C-29.02463255 5.34786708 -29.02463255 5.34786708 -31 5 C-20.36175862 1.39381648 -11.33585836 -0.80842096 0 0 Z " fill="#B8B8B8" transform="translate(95,4)"/>
<path d="M0 0 C2 0.25 2 0.25 4 1 C5.25541557 4.76624671 4.37061958 6.37188934 3 10 C1.35 8.68 -0.3 7.36 -2 6 C-1.125 1.125 -1.125 1.125 0 0 Z " fill="#A3A3A3" transform="translate(123,70)"/>
<path d="M0 0 C0 0.66 0 1.32 0 2 C0.82242188 1.9278125 1.64484375 1.855625 2.4921875 1.78125 C9.34915248 1.21115591 16.11992439 0.8602242 23 1 C23 1.33 23 1.66 23 2 C16.04785719 3.31191997 9.11555097 3.11058058 2.0625 3.0625 C0.80630859 3.05798828 -0.44988281 3.05347656 -1.74414062 3.04882812 C-4.82947663 3.03709681 -7.91471316 3.020681 -11 3 C-11 2.67 -11 2.34 -11 2 C-9.5422647 1.664061 -8.08378894 1.33133376 -6.625 1 C-5.40683594 0.7215625 -5.40683594 0.7215625 -4.1640625 0.4375 C-2 0 -2 0 0 0 Z " fill="#5C5C5C" transform="translate(97,193)"/>
<path d="M0 0 C2.31 0 4.62 0 7 0 C7 2.64 7 5.28 7 8 C4.69 8 2.38 8 0 8 C0.185625 7.05125 0.37125 6.1025 0.5625 5.125 C1.28686632 2.10131207 1.28686632 2.10131207 0 0 Z " fill="#7E7A77" transform="translate(100,130)"/>
<path d="M0 0 C1.65322266 0.01740234 1.65322266 0.01740234 3.33984375 0.03515625 C4.99693359 0.04869141 4.99693359 0.04869141 6.6875 0.0625 C7.54214844 0.07410156 8.39679688 0.08570313 9.27734375 0.09765625 C6.27734375 2.09765625 6.27734375 2.09765625 4.08984375 1.72265625 C3.19265625 1.41328125 3.19265625 1.41328125 2.27734375 1.09765625 C2.27734375 3.07765625 2.27734375 5.05765625 2.27734375 7.09765625 C1.28734375 6.76765625 0.29734375 6.43765625 -0.72265625 6.09765625 C-0.72265625 5.43765625 -0.72265625 4.77765625 -0.72265625 4.09765625 C-1.38265625 4.09765625 -2.04265625 4.09765625 -2.72265625 4.09765625 C-3.05265625 3.10765625 -3.38265625 2.11765625 -3.72265625 1.09765625 C-2.72265625 0.09765625 -2.72265625 0.09765625 0 0 Z " fill="#161414" transform="translate(139.72265625,138.90234375)"/>
<path d="M0 0 C0.639375 0.165 1.27875 0.33 1.9375 0.5 C3.80826821 1.03926667 3.80826821 1.03926667 5 1 C5.99 1.33 6.98 1.66 8 2 C8 3.98 8 5.96 8 8 C8.66 8.33 9.32 8.66 10 9 C7 9 7 9 5.17578125 7.28515625 C4.56089844 6.55167969 3.94601563 5.81820312 3.3125 5.0625 C2.68988281 4.33160156 2.06726563 3.60070312 1.42578125 2.84765625 C0 1 0 1 0 0 Z " fill="#525150" transform="translate(23,158)"/>
<path d="M0 0 C0.33 2.97 0.66 5.94 1 9 C1.66 9 2.32 9 3 9 C3.33 10.32 3.66 11.64 4 13 C3.01 13 2.02 13 1 13 C0.32332002 11.75539217 -0.34094719 10.50403104 -1 9.25 C-1.37125 8.55390625 -1.7425 7.8578125 -2.125 7.140625 C-3 5 -3 5 -3 1 C-1 0 -1 0 0 0 Z " fill="#4C4948" transform="translate(15,136)"/>
<path d="M0 0 C0.66 0 1.32 0 2 0 C2 1.98 2 3.96 2 6 C3.98 6 5.96 6 8 6 C8 4.02 8 2.04 8 0 C8.66 0.33 9.32 0.66 10 1 C9.67 3.31 9.34 5.62 9 8 C6.03 8 3.06 8 0 8 C0 5.36 0 2.72 0 0 Z " fill="#B9B5B1" transform="translate(130,130)"/>
<path d="M0 0 C2.33294775 -0.04241723 4.66702567 -0.04092937 7 0 C8 1 8 1 8.0625 4.0625 C8.041875 5.031875 8.02125 6.00125 8 7 C7.67 6.34 7.34 5.68 7 5 C5.35 5 3.7 5 2 5 C1.34 3.35 0.68 1.7 0 0 Z " fill="#8F8B89" transform="translate(92,130)"/>
<path d="M0 0 C1.3271261 3.9813783 1.06915913 7.85045227 1 12 C0.67 12 0.34 12 0 12 C0 10.35 0 8.7 0 7 C-0.94875 7.04125 -1.8975 7.0825 -2.875 7.125 C-6 7 -6 7 -8 5 C-6 3 -6 3 -2.875 2.875 C-1.92625 2.91625 -0.9775 2.9575 0 3 C0 2.01 0 1.02 0 0 Z " fill="#7A7674" transform="translate(62,125)"/>
<path d="M0 0 C0.66 0.66 1.32 1.32 2 2 C1.76236269 6.39629018 -0.14143559 8.77258856 -3 12 C-3.6875 9.75 -3.6875 9.75 -4 7 C-2.625 4.875 -2.625 4.875 -1 3 C-0.67 2.01 -0.34 1.02 0 0 Z " fill="#565552" transform="translate(180,146)"/>
<path d="M0 0 C0.66 0.33 1.32 0.66 2 1 C0.53333333 5.64444444 0.53333333 5.64444444 -1.875 7.25 C-3.90181904 7.9653479 -5.9130951 8.49355446 -8 9 C-7.04270084 7.87411986 -6.08412105 6.7493285 -5.125 5.625 C-4.59132813 4.99851562 -4.05765625 4.37203125 -3.5078125 3.7265625 C-2.38567993 2.44163349 -1.20628025 1.20628025 0 0 Z " fill="#A3A3A3" transform="translate(36,26)"/>
<path d="M0 0 C2.31 0 4.62 0 7 0 C7 1.32 7 2.64 7 4 C4.69 4 2.38 4 0 4 C0 2.68 0 1.36 0 0 Z " fill="#1D1815" transform="translate(55,132)"/>
<path d="M0 0 C0.66 0.33 1.32 0.66 2 1 C1.38125 1.680625 0.7625 2.36125 0.125 3.0625 C-2.3319068 6.45881234 -3.04945605 8.96018821 -4 13 C-5.60461448 8.98846379 -4.45438973 5.92685226 -3 2 C-2.01 1.34 -1.02 0.68 0 0 Z " fill="#909090" transform="translate(89,152)"/>
<path d="M0 0 C0.66 0.66 1.32 1.32 2 2 C1.34 3.32 0.68 4.64 0 6 C-1.65 6 -3.3 6 -5 6 C-5 4.68 -5 3.36 -5 2 C-3.35 2 -1.7 2 0 2 C0 1.34 0 0.68 0 0 Z " fill="#635E5C" transform="translate(87,130)"/>
<path d="M0 0 C1.485 0.99 1.485 0.99 3 2 C3.04165365 3.66614608 3.04165365 5.33385392 3 7 C3.66 7.66 4.32 8.32 5 9 C3.35 9 1.7 9 0 9 C0 6.03 0 3.06 0 0 Z " fill="#31302F" transform="translate(135,120)"/>
<path d="M0 0 C0 2.31 0 4.62 0 7 C-0.66 7 -1.32 7 -2 7 C-2.33 6.01 -2.66 5.02 -3 4 C-3.99 4 -4.98 4 -6 4 C-5.67 3.01 -5.34 2.02 -5 1 C-2 0 -2 0 0 0 Z " fill="#767676" transform="translate(32,34)"/>
<path d="M0 0 C0.33 0 0.66 0 1 0 C1.04898438 0.84304687 1.09796875 1.68609375 1.1484375 2.5546875 C1.22320312 3.65039062 1.29796875 4.74609375 1.375 5.875 C1.44460937 6.96554688 1.51421875 8.05609375 1.5859375 9.1796875 C1.73253491 12.13046474 1.73253491 12.13046474 4 14 C2.68 14.33 1.36 14.66 0 15 C0 10.05 0 5.1 0 0 Z " fill="#2C2A28" transform="translate(167,152)"/>
<path d="M0 0 C1.98 0.495 1.98 0.495 4 1 C3.34 2.98 2.68 4.96 2 7 C1.01 7 0.02 7 -1 7 C-0.67 4.69 -0.34 2.38 0 0 Z " fill="#B0B0B0" transform="translate(75,92)"/>
<path d="M0 0 C-0.72316406 0.61488281 -0.72316406 0.61488281 -1.4609375 1.2421875 C-2.09257813 1.78101563 -2.72421875 2.31984375 -3.375 2.875 C-4.00148438 3.40867187 -4.62796875 3.94234375 -5.2734375 4.4921875 C-6.55836651 5.61432007 -7.79371975 6.79371975 -9 8 C-8.37315423 5.07471973 -7.51695295 2.58774327 -6 0 C-3.50907189 -1.24546405 -2.58919267 -0.7767578 0 0 Z " fill="#CDCDCD" transform="translate(90,40)"/>
<path d="M0 0 C2.97 0 5.94 0 9 0 C8.67 0.99 8.34 1.98 8 3 C7.4225 2.835 6.845 2.67 6.25 2.5 C3.73335631 1.85537969 3.73335631 1.85537969 0 2 C0 1.34 0 0.68 0 0 Z " fill="#353330" transform="translate(43,140)"/>
<path d="M0 0 C0.5625 1.9375 0.5625 1.9375 1 4 C0 5 0 5 -3.5625 5.0625 C-4.696875 5.041875 -5.83125 5.02125 -7 5 C-6.67 4.34 -6.34 3.68 -6 3 C-2.9375 2.375 -2.9375 2.375 0 2 C0 1.34 0 0.68 0 0 Z " fill="#1E1E1C" transform="translate(69,125)"/>
<path d="M0 0 C0.99 0.33 1.98 0.66 3 1 C3 2.65 3 4.3 3 6 C2.01 6.495 2.01 6.495 1 7 C0.566875 6.0409375 0.566875 6.0409375 0.125 5.0625 C-0.82823451 2.84793921 -0.82823451 2.84793921 -3 2 C-2.01 1.34 -1.02 0.68 0 0 Z " fill="#5D5D5D" transform="translate(27,37)"/>
<path d="M0 0 C0.99 0.33 1.98 0.66 3 1 C3.99 1 4.98 1 6 1 C5.67 1.99 5.34 2.98 5 4 C2.9375 4.6875 2.9375 4.6875 1 5 C0.34 3.68 -0.32 2.36 -1 1 C-0.67 0.67 -0.34 0.34 0 0 Z " fill="#9A9A9A" transform="translate(109,82)"/>
<path d="M0 0 C0.66 0.33 1.32 0.66 2 1 C0.02 3.31 -1.96 5.62 -4 8 C-4.66 7.67 -5.32 7.34 -6 7 C-4.02 4.69 -2.04 2.38 0 0 Z " fill="#494848" transform="translate(91,122)"/>
</svg>
